<svg width="20" height="17" viewBox="0 0 20 17" fill="none" xmlns="http://www.w3.org/2000/svg">
<path fill-rule="evenodd" clip-rule="evenodd" d="M17.7224 0H12.4879C11.2454 0 10.2104 1.03503 10.2104 2.27756V6.29892C10.2104 7.54145 11.2454 8.57648 12.4879 8.57648H12.7242L11.3941 9.82089C11.2166 9.99839 11.1873 10.2934 11.3648 10.4715C11.4529 10.5597 11.5716 10.6203 11.691 10.6203C11.8104 10.6203 11.9273 10.5909 11.986 10.5009L15.0017 7.69208H12.4585C11.7185 7.69208 11.0973 7.07081 11.0973 6.33079V2.30944C11.0973 1.56942 11.7185 0.94815 12.4585 0.94815H17.6931C18.4331 0.94815 19.0543 1.56942 19.0543 2.30944V6.33079C19.0543 7.07081 18.4331 7.69208 17.6931 7.69208H16.363L15.3861 8.60836H17.7224C18.965 8.60836 20 7.57333 20 6.33079V2.30944C19.9706 1.03565 18.965 0.00062502 17.7224 0.00062502V0ZM5.53649 10.619C6.88402 10.619 8.46407 9.154 8.46407 7.25207V6.5783C8.46407 5.28889 7.70217 3.8851 5.53649 3.8851C3.51706 3.8851 2.60891 5.23264 2.60891 6.5783V7.25207C2.57953 9.12525 4.19083 10.619 5.53649 10.619ZM5.53899 4.82013C4.30833 4.82013 3.54643 5.46515 3.54643 6.54893H3.54581V7.25207C3.54581 8.59773 4.74709 9.68151 5.53836 9.68151C6.35901 9.68151 7.53092 8.65836 7.53092 7.25207V6.5783C7.53092 6.25642 7.47279 5.96328 7.35529 5.7289C7.0334 6.19767 6.30276 6.84206 4.66209 7.10582H4.60334C4.39833 7.10582 4.2227 6.95894 4.19333 6.75393C4.16457 6.51955 4.31083 6.31454 4.54521 6.28517C6.24213 6.02141 6.68152 5.34764 6.76964 5.08389C6.44714 4.90826 6.03713 4.82013 5.53899 4.82013ZM10.7204 12.2872C10.5154 11.6134 8.78845 10.7953 7.76342 10.3847C7.52904 10.2965 7.29466 10.414 7.20653 10.619C7.1184 10.8534 7.23591 11.0878 7.44091 11.1759C7.47113 11.1874 7.5 11.1998 7.5295 11.2125L7.52952 11.2126L7.56217 11.2266C7.58029 11.2537 7.659 11.2801 7.73392 11.3051L7.73393 11.3051C7.80371 11.3285 7.8702 11.3507 7.88135 11.3715C8.31006 11.4895 9.78098 12.336 9.89973 12.5522C10.0172 12.9916 10.2222 14.9529 10.3097 16.0954C10.3097 16.3004 10.5147 16.4761 10.7198 16.4761H10.7785C11.0129 16.4448 11.1885 16.2398 11.1591 16.0054L11.1507 15.9098L11.1507 15.9097C11.0994 15.3225 10.8843 12.8612 10.7204 12.2872ZM0.00321296 16.0061C-0.0261628 16.2404 0.149467 16.4454 0.383848 16.4748H0.413849C0.64823 16.4767 0.821985 16.3011 0.853236 16.0961C0.940738 14.9554 1.14574 12.9922 1.26325 12.5528C1.38012 12.2891 2.55016 11.6741 3.72206 11.1759C3.92707 11.0878 4.04457 10.824 3.95644 10.619C3.86832 10.414 3.60456 10.2965 3.39955 10.3847C2.37453 10.7953 0.647605 11.5841 0.4426 12.2872C0.281254 12.8522 0.0703236 15.2455 0.0143061 15.8811C0.00934705 15.9373 0.00560203 15.9798 0.00321296 16.0061Z" fill="white"/>
</svg>
