<svg width="19" height="21" viewBox="0 0 19 21" fill="none" xmlns="http://www.w3.org/2000/svg">
<path fill-rule="evenodd" clip-rule="evenodd" d="M10 0.5C10 0.223858 9.77614 0 9.5 0C9.22386 0 9 0.223858 9 0.5V1.5C9 1.77614 9.22386 2 9.5 2C9.77614 2 10 1.77614 10 1.5V0.5ZM13 17V16V13.92C14.5514 12.8314 15.5 11.04 15.5 9C15.5 5.69143 12.8086 3 9.5 3C6.19143 3 3.5 5.69143 3.5 9C3.5 11.04 4.44857 12.8314 6 13.92V16V17C6 17.6667 6.33333 18 7 18H12C12.6667 18 13 17.6667 13 17ZM7 19V20C7 20.5523 7.44772 21 8 21H11C11.5523 21 12 20.5523 12 20V19H7ZM12.35 13.1667C13.7 12.2528 14.5 10.4458 14.5 8.86111C14.5 6.17778 12.26 4 9.5 4C6.74 4 4.5 6.17778 4.5 8.86111C4.5 10.4458 5.3 12.2528 6.65 13.1667C6.88333 13.4371 7 13.7149 7 14V16H12V14C12 13.7023 12.1167 13.4245 12.35 13.1667ZM2.20711 3.29289C2.40237 3.09763 2.71895 3.09763 2.91421 3.29289L3.62132 4C3.81658 4.19526 3.81658 4.51184 3.62132 4.70711C3.42606 4.90237 3.10948 4.90237 2.91421 4.70711L2.20711 4C2.01184 3.80474 2.01184 3.48816 2.20711 3.29289ZM16.6213 4C16.8166 3.80474 16.8166 3.48816 16.6213 3.29289C16.4261 3.09763 16.1095 3.09763 15.9142 3.29289L15.2071 4C15.0118 4.19526 15.0118 4.51184 15.2071 4.70711C15.4024 4.90237 15.719 4.90237 15.9142 4.70711L16.6213 4ZM3.62132 14.2929C3.81658 14.4882 3.81658 14.8047 3.62132 15L2.91421 15.7071C2.71895 15.9024 2.40237 15.9024 2.20711 15.7071C2.01184 15.5118 2.01184 15.1953 2.20711 15L2.91421 14.2929C3.10948 14.0976 3.42606 14.0976 3.62132 14.2929ZM15.9142 14.2929C15.719 14.0976 15.4024 14.0976 15.2071 14.2929C15.0118 14.4882 15.0118 14.8047 15.2071 15L15.9142 15.7071C16.1095 15.9024 16.4261 15.9024 16.6213 15.7071C16.8166 15.5118 16.8166 15.1953 16.6213 15L15.9142 14.2929ZM17 10C17 9.72386 17.2239 9.5 17.5 9.5H18.5C18.7761 9.5 19 9.72386 19 10C19 10.2761 18.7761 10.5 18.5 10.5H17.5C17.2239 10.5 17 10.2761 17 10ZM0.5 9.5C0.223858 9.5 0 9.72386 0 10C0 10.2761 0.223858 10.5 0.5 10.5H1.5C1.77614 10.5 2 10.2761 2 10C2 9.72386 1.77614 9.5 1.5 9.5H0.5Z" fill="white"/>
</svg>
