<svg width="30" height="30" viewBox="0 0 30 30" fill="none" xmlns="http://www.w3.org/2000/svg">
<path fill-rule="evenodd" clip-rule="evenodd" d="M15 15C10.8579 15 7.5 11.6421 7.5 7.5C7.5 3.35786 10.8579 0 15 0C19.1421 0 22.5 3.35786 22.5 7.5C22.5 11.6421 19.1421 15 15 15ZM27 30C28.6569 30 30 28.6569 30 27V23.25C30 19.5221 23.2843 16.5 15 16.5C6.71573 16.5 0 19.5221 0 23.25V27C0 28.6569 1.34315 30 3 30H27ZM28.5 27C28.5 27.8284 27.8284 28.5 27 28.5H3C2.17157 28.5 1.5 27.8284 1.5 27V23.25C1.5 20.6777 7.45055 18 15 18C22.5494 18 28.5 20.6777 28.5 23.25V27ZM21 7.5C21 10.8137 18.3137 13.5 15 13.5C11.6863 13.5 9 10.8137 9 7.5C9 4.18629 11.6863 1.5 15 1.5C18.3137 1.5 21 4.18629 21 7.5Z" fill="#0079C7"/>
</svg>
