<svg width="18" height="20" viewBox="0 0 18 20" fill="none" xmlns="http://www.w3.org/2000/svg">
<path fill-rule="evenodd" clip-rule="evenodd" d="M9.00112 5C7.57319 5 6.44275 3.88235 6.50225 2.47059C6.50225 1.11765 7.63269 0 9.00112 0C10.3696 0 11.5 1.11765 11.5 2.52941C11.5 3.88235 10.4291 5 9.00112 5ZM11.5 20V14H12C13 14 13 13 13 13V8C13 6.89543 12.1046 6 11 6H7C5.89543 6 5 6.89543 5 8V13C5 13.6667 5.33333 14 6 14H6.5V20H7.5V13H6V8C6 7.44772 6.44772 7 7 7H11C11.5523 7 12 7.44772 12 8V13H10.5V20H11.5ZM2 8H4C4 7.33333 4.08333 7 4.25 7H2C0.89543 7 0 7.89543 0 9V14C0 14.6667 0.333333 15 1 15H1.5V20H2.5V18V14H1V9C1 8.44772 1.44772 8 2 8ZM15.5 14V18V20H16.5V15H17C17.6667 15 18 14.6667 18 14V9C18 7.89543 17.1046 7 16 7H13.75C13.9167 7 14 7.33333 14 8H16C16.5523 8 17 8.44772 17 9V14H15.5ZM7.5 2.53061C7.5 1.73469 8.125 1 9 1C9.8125 1 10.5 1.67347 10.5 2.46939C10.5 3.26531 9.8125 4 9 4C8.1875 4 7.5 3.32653 7.5 2.53061ZM14.5011 6C13.0732 6 11.9427 4.88235 12.0022 3.47059C12.0022 2.11765 13.1327 1 14.5011 1C15.8696 1 17 2.11765 17 3.52941C17 4.88235 15.9291 6 14.5011 6ZM13 3.53061C13 2.73469 13.625 2 14.5 2C15.3125 2 16 2.67347 16 3.46939C16 4.26531 15.3125 5 14.5 5C13.6875 5 13 4.32653 13 3.53061ZM3.50112 6C2.07319 6 0.942748 4.88235 1.00225 3.47059C1.00225 2.11765 2.13269 1 3.50112 1C4.86956 1 6 2.11765 6 3.52941C6 4.88235 4.92905 6 3.50112 6ZM2 3.53061C2 2.73469 2.625 2 3.5 2C4.3125 2 5 2.67347 5 3.46939C5 4.26531 4.3125 5 3.5 5C2.6875 5 2 4.32653 2 3.53061Z" fill="white"/>
</svg>
