<svg width="20" height="18" viewBox="0 0 20 18" fill="none" xmlns="http://www.w3.org/2000/svg">
<path fill-rule="evenodd" clip-rule="evenodd" d="M0 9.42952V16.3947H0.00062484C0.00062484 16.8145 0.342414 17.1545 0.762309 17.1563H19.2383C19.6582 17.1563 20 16.8145 20 16.3947V9.42952L18.0667 2.72994C17.9711 2.40377 17.6743 2.17946 17.3344 2.17946H14.7432V0.761685C14.7432 0.34179 14.4014 0 13.9815 0H5.97163C5.55174 0 5.20995 0.34179 5.20995 0.761685V2.17946H2.66558C2.32567 2.17946 2.02699 2.40377 1.93327 2.72994L0 9.42952ZM18.939 16.1003H1.00787H1.00725V10.5742H6.09785L6.14096 10.6623C6.88703 12.1563 8.37541 13.0836 10.0231 13.0836C11.6415 13.0836 13.1098 12.1563 13.8578 10.6623L13.9009 10.5742H18.939V16.1003ZM6.78518 9.56636C7.42189 11.2772 8.43727 12.0757 9.97376 12.0757C11.5102 12.0757 12.5256 11.2772 13.1623 9.56636H16.0504V7.7818H3.89715V9.56636H6.78518ZM3.21982 9.56636H1.05036L1.05099 9.56573L2.89615 3.18858H4.54824V4.64134H4.25519C4.05024 4.64134 3.88403 4.80755 3.88403 5.0125V7.10385H3.59098C3.38603 7.10385 3.21982 7.27006 3.21982 7.47501V9.56636ZM16.7752 9.56636H16.7777V9.56698L16.7752 9.56636ZM16.7777 9.56636H18.9446L17.1013 3.1892H15.4493V4.64196H15.7423C15.9473 4.64196 16.1135 4.80817 16.1135 5.01312V7.05761H16.4065C16.6115 7.05761 16.7777 7.22382 16.7777 7.42877V9.56636ZM15.4355 7.05761H4.55948V5.31992H15.4355V7.05761ZM5.22119 4.64196H14.7244V2.99988H5.22119V4.64196ZM14.0634 2.32192H5.8854V0.67983H14.0634V2.32192Z" fill="white"/>
</svg>
