<svg width="20" height="20" viewBox="0 0 20 20" fill="none" xmlns="http://www.w3.org/2000/svg">
<path fill-rule="evenodd" clip-rule="evenodd" d="M3.2399 2.8462C4.12237 1.9631 5.16171 1.26438 6.35668 0.756268L6.3573 0.755643C7.54914 0.248159 8.82222 -0.00370862 10.1778 4.12578e-05C11.5409 4.12578e-05 12.8146 0.251908 14.0058 0.760018C15.1895 1.26813 16.2289 1.96685 17.1232 2.84995C18.0176 3.73492 18.7207 4.77177 19.2325 5.95173C19.7444 7.13544 20 8.39853 20 9.73661C20 11.0759 19.7444 12.3422 19.2325 13.5215C18.7207 14.7052 18.0182 15.7327 17.1232 16.6114C16.2282 17.4901 15.1895 18.1895 14.0058 18.7013C12.8146 19.2132 11.5409 19.4688 10.1778 19.4688C9.32221 19.4688 8.49411 19.3638 7.69913 19.1488C6.89666 18.9338 6.14418 18.6407 5.43358 18.262L0 19.9769L1.77307 14.7465C1.32183 14.0196 0.974345 13.229 0.729977 12.3772C0.47811 11.5278 0.354989 10.6428 0.354989 9.73286C0.354989 8.39728 0.611231 7.13169 1.13059 5.94798C1.64995 4.76802 2.35305 3.73305 3.2399 2.8462ZM5.6492 16.5608C6.28793 16.9945 6.99916 17.3264 7.76663 17.5589L7.76788 17.5576C8.53536 17.7901 9.33408 17.9095 10.1778 17.9095C11.3203 17.9095 12.3909 17.6951 13.3946 17.2633C14.4002 16.8358 15.2751 16.2495 16.0233 15.5096C16.7732 14.7658 17.3607 13.9021 17.7963 12.9121C18.2301 11.9278 18.4469 10.8653 18.4469 9.73474C18.4469 8.59977 18.2282 7.53981 17.7963 6.54546C17.3613 5.54924 16.7732 4.68239 16.0233 3.93992C15.2733 3.19744 14.3983 2.60933 13.3946 2.18185C12.3909 1.75436 11.3203 1.53937 10.1778 1.53937C9.04284 1.53937 7.98038 1.75374 6.97853 2.18185C5.97669 2.60996 5.09797 3.19994 4.35361 3.93992C3.60364 4.68052 3.01178 5.54737 2.57992 6.54546C2.14618 7.53731 1.92931 8.59977 1.92931 9.73474C1.92931 10.6328 2.06556 11.4884 2.34118 12.299C2.61617 13.1153 3.00303 13.8615 3.50302 14.5333L2.45992 17.5589L5.6492 16.5608Z" fill="white"/>
</svg>
