<svg width="24" height="24" viewBox="0 0 24 24" fill="none" xmlns="http://www.w3.org/2000/svg">
<path fill-rule="evenodd" clip-rule="evenodd" d="M14.2928 17.4149L16.124 15.5823C16.3959 15.3102 16.7839 15.189 17.1622 15.2579L23.0187 16.3255C23.5724 16.4265 23.9761 16.9073 23.9801 17.4705L23.9816 17.6832C23.9934 19.349 24.0012 20.4482 23.9998 21.5999C24.0013 21.5999 24.0013 23.9999 21.5534 23.9999C9.78644 23.4108 0 14.2326 0 2.37222C0 2.36469 0 0 2.39999 0H6.52367C7.09023 0 7.57558 0.405831 7.67631 0.963806L8.73445 6.82494C8.80271 7.20302 8.68151 7.59057 8.41005 7.86224L6.57882 9.69491C8.38226 12.9296 11.0606 15.6101 14.2928 17.4149ZM23.9354 8.6378C24.0122 9.29179 24.0194 9.88459 23.9594 10.3982C23.8934 10.9442 23.8094 11.369 23.7014 11.6966C23.5562 12.0086 23.4278 12.1214 23.3678 12.161C23.2202 12.2666 23.0774 12.3134 22.9179 12.3134V12.3122C22.8662 12.3122 22.8158 12.3074 22.7607 12.2978C22.5363 12.2582 22.3719 12.1526 22.2639 11.975C22.1355 11.801 22.1079 11.5382 22.1703 11.183C22.3047 10.7954 22.3767 10.3406 22.3911 9.82219C22.3983 9.32059 22.3491 8.8226 22.2411 8.2946C22.1235 7.7678 21.9411 7.2266 21.6951 6.68181C21.4695 6.16341 21.1671 5.62581 20.7711 5.03422L20.7279 4.96582L20.7123 4.96342C20.3403 4.42942 19.9443 3.96022 19.5387 3.56902C19.1103 3.15502 18.6639 2.79623 18.2115 2.50103C17.7435 2.20103 17.2815 1.98023 16.8363 1.83983C16.3563 1.68983 15.9195 1.61663 15.5031 1.61663C15.0687 1.53743 14.8863 1.39703 14.8155 1.29383C14.6799 1.10663 14.6367 0.909836 14.6751 0.686637C14.7147 0.468238 14.8251 0.297839 15.0123 0.165839C15.0963 0.10104 15.2583 0.0254399 15.5859 0.000239999C15.9483 0.00743996 16.3839 0.0698397 16.8687 0.189839C17.3679 0.307439 17.9187 0.519837 18.5103 0.827036C19.1079 1.13783 19.6983 1.54463 20.3139 2.07863C20.9331 2.61143 21.5355 3.29542 22.1031 4.11622C22.6838 4.93942 23.117 5.74101 23.3942 6.49581C23.6678 7.2578 23.8514 7.979 23.9354 8.6378ZM16.4894 8.26868C16.7438 8.61068 16.9262 8.98148 17.039 9.37267C17.1506 9.76867 17.1998 10.1479 17.1854 10.5151C17.1482 10.7371 17.0678 10.8895 16.9586 10.9759C16.8254 11.0635 16.6826 11.0887 16.535 11.0635C16.3826 11.0347 16.2602 10.9627 16.1726 10.8391C16.121 10.7611 16.0862 10.6459 16.0718 10.5007C16.0766 10.3255 16.0562 10.0999 16.0118 9.82627C15.9662 9.55147 15.8258 9.24668 15.599 8.91428C15.3662 8.58068 15.1322 8.34908 14.8886 8.21828C14.6462 8.09108 14.4422 7.99028 14.2766 7.92188L14.2754 7.92068C14.147 7.86548 14.0534 7.79468 14.0066 7.70828C13.9142 7.57988 13.8842 7.43828 13.9142 7.28588C13.9442 7.13829 14.0198 7.01829 14.1458 6.92469C14.2574 6.84549 14.423 6.82509 14.6462 6.86469C14.993 6.98349 15.329 7.15989 15.6542 7.39388C15.9722 7.63148 16.2542 7.91948 16.4894 8.26868ZM20.0589 8.009C19.8669 7.3358 19.5501 6.70221 19.1121 6.11661C18.7209 5.53821 18.2397 5.03662 17.6877 4.62382C17.1249 4.21942 16.5585 3.92302 15.9873 3.72262C15.8709 3.70222 15.7641 3.69262 15.6681 3.69262C15.4905 3.69262 15.3501 3.72742 15.2541 3.79822C15.0705 3.93382 14.9625 4.10542 14.9181 4.32142C14.8737 4.53982 14.9181 4.73662 15.0597 4.93342C15.1017 5.00662 15.2037 5.11582 15.4437 5.22141C15.7185 5.33181 16.0557 5.49261 16.5429 5.75061C16.9953 5.99781 17.4249 6.41661 17.8581 7.03581C18.2841 7.6646 18.5337 8.2154 18.6129 8.7182C18.6921 9.227 18.7281 9.62899 18.7209 9.91819C18.7485 10.205 18.8169 10.355 18.8637 10.427C18.9861 10.601 19.1541 10.7066 19.3821 10.7462C19.4361 10.7558 19.4889 10.7606 19.5405 10.7606C19.6989 10.7606 19.8465 10.7138 19.9785 10.631C20.1393 10.5074 20.2521 10.2722 20.3085 9.96139C20.3337 9.3398 20.2485 8.681 20.0589 8.009ZM16.9391 16.3988L22.7999 17.4636C22.8035 17.9689 22.801 18.7298 22.7986 19.4771C22.7959 20.3423 22.7931 21.1892 22.7999 21.5999C22.8196 22.7999 21.5993 22.8007 21.5833 22.7999C11.1203 22.2761 1.19999 14.1824 1.19999 2.39999C1.19999 1.59999 1.59999 1.19999 2.39999 1.19999H6.53818L7.59351 7.0457L5.15669 9.48447C7.18604 13.5169 10.4731 16.8066 14.5023 18.8376L16.9391 16.3988Z" fill="#0079C7"/>
</svg>
