<svg width="11" height="18" viewBox="0 0 11 18" fill="none" xmlns="http://www.w3.org/2000/svg">
<path id="Page 1" d="M5.26398 1.11377C5.54012 1.11377 5.76398 0.889912 5.76398 0.61377C5.76398 0.337627 5.54012 0.11377 5.26398 0.11377V1.11377ZM1.01415 4.62085L1.5107 4.67953C1.51189 4.66946 1.51277 4.65935 1.51335 4.64922L1.01415 4.62085ZM1.01699 5.18702L1.51586 5.15342C1.51552 5.14846 1.51511 5.1435 1.51463 5.13855L1.01699 5.18702ZM1.09908 5.78433L1.5908 5.69373C1.5899 5.68882 1.58892 5.68393 1.58787 5.67905L1.09908 5.78433ZM5.44444 16.4998L4.98896 16.2935L4.98605 16.3001L5.44444 16.4998ZM9.42675 5.78999L8.93866 5.68153C8.93734 5.68744 8.93614 5.69338 8.93504 5.69935L9.42675 5.78999ZM9.51097 5.19056L9.01302 5.14358L9.01216 5.15604L9.51097 5.19056ZM9.5138 4.62934L9.01462 4.65792C9.01533 4.67035 9.01651 4.68275 9.01814 4.69509L9.5138 4.62934ZM5.26398 0.11377C4.98784 0.11377 4.76398 0.337627 4.76398 0.61377C4.76398 0.889912 4.98784 1.11377 5.26398 1.11377V0.11377ZM5.26398 6.91349C5.54012 6.91349 5.76398 6.68963 5.76398 6.41349C5.76398 6.13734 5.54012 5.91349 5.26398 5.91349V6.91349ZM5.26398 5.91349C4.98783 5.91349 4.76398 6.13734 4.76398 6.41349C4.76398 6.68963 4.98783 6.91349 5.26398 6.91349V5.91349ZM5.26398 0.11377C2.74538 0.11377 0.657426 2.08586 0.51496 4.59247L1.51335 4.64922C1.62566 2.67318 3.27443 1.11377 5.26398 1.11377V0.11377ZM0.51761 4.56216C0.505863 4.66156 0.5 4.76904 0.5 4.87633H1.5C1.5 4.80386 1.50404 4.73583 1.5107 4.67953L0.51761 4.56216ZM0.5 4.87633C0.5 4.99263 0.507672 5.1157 0.51934 5.23549L1.51463 5.13855C1.50507 5.04036 1.5 4.95111 1.5 4.87633H0.5ZM0.518115 5.22061C0.533773 5.45313 0.565207 5.6803 0.610289 5.88961L1.58787 5.67905C1.55369 5.52035 1.52851 5.34129 1.51586 5.15342L0.518115 5.22061ZM0.607356 5.87493C0.822523 7.04276 1.77117 9.79446 2.70186 12.214C3.17077 13.4331 3.64273 14.5874 4.02732 15.4405C4.21882 15.8652 4.39315 16.2253 4.53759 16.4838C4.60858 16.6108 4.68098 16.7289 4.75178 16.8211C4.78623 16.866 4.83306 16.9217 4.8912 16.9708C4.93199 17.0053 5.06542 17.1138 5.26398 17.1138V16.1138C5.43471 16.1138 5.53473 16.2054 5.53686 16.2072C5.55634 16.2237 5.55927 16.2308 5.54493 16.2121C5.51815 16.1772 5.47341 16.1084 5.4105 15.9959C5.28715 15.7752 5.12671 15.4459 4.93895 15.0295C4.56503 14.2001 4.10055 13.0648 3.63519 11.855C2.69733 9.4168 1.78611 6.75378 1.5908 5.69373L0.607356 5.87493ZM5.26398 17.1138C5.52445 17.1138 5.7854 16.9691 5.90284 16.6995L4.98605 16.3001C5.04121 16.1735 5.16204 16.1138 5.26398 16.1138V17.1138ZM5.89988 16.7062C5.96873 16.5542 6.81523 14.6965 7.72144 12.4606C8.62142 10.2401 9.60285 7.59274 9.91847 5.88064L8.93504 5.69935C8.6406 7.29652 7.69918 9.85331 6.79466 12.085C5.89637 14.3014 5.05675 16.144 4.98901 16.2935L5.89988 16.7062ZM9.91484 5.89846C9.9635 5.67953 9.99417 5.45064 10.0098 5.22508L9.01216 5.15604C8.99946 5.33953 8.97493 5.51829 8.93866 5.68153L9.91484 5.89846ZM10.0088 5.23752C10.0205 5.11296 10.0272 4.99078 10.0272 4.87633H9.02725C9.02725 4.95296 9.02266 5.0431 9.01318 5.1436L10.0088 5.23752ZM10.0272 4.87633C10.0272 4.77411 10.0226 4.66258 10.0095 4.56359L9.01814 4.69509C9.02341 4.73481 9.02725 4.79879 9.02725 4.87633H10.0272ZM10.013 4.60076C9.86905 2.0867 7.78346 0.11377 5.26398 0.11377V1.11377C7.25263 1.11377 8.90094 2.67233 9.01462 4.65792L10.013 4.60076ZM5.26398 5.91349C4.50353 5.91349 3.88854 5.29892 3.88854 4.53946H2.88854C2.88854 5.85219 3.95223 6.91349 5.26398 6.91349V5.91349ZM3.88854 4.53946C3.88854 3.78059 4.50366 3.16543 5.26398 3.16543V2.16543C3.95211 2.16543 2.88854 3.22756 2.88854 4.53946H3.88854ZM5.26398 3.16543C6.02181 3.16543 6.6373 3.78022 6.6373 4.53946H7.6373C7.6373 3.22793 6.57409 2.16543 5.26398 2.16543V3.16543ZM6.6373 4.53946C6.6373 5.29929 6.02193 5.91349 5.26398 5.91349V6.91349C6.57397 6.91349 7.6373 5.85182 7.6373 4.53946H6.6373Z" fill="#1697F3"/>
</svg>
